<svg width="128" height="38" viewBox="0 0 158 38" fill="none" xmlns="http://www.w3.org/2000/svg">
<rect width="83" height="38" fill="#EB2E24"/>
<path d="M6.664 31V5.44H15.952C18.736 5.44 21.064 6.016 22.936 7.168C24.808 8.296 26.212 9.832 27.148 11.776C28.084 13.696 28.552 15.832 28.552 18.184C28.552 20.776 28.036 23.032 27.004 24.952C25.972 26.872 24.508 28.36 22.612 29.416C20.74 30.472 18.52 31 15.952 31H6.664ZM23.548 18.184C23.548 16.528 23.248 15.076 22.648 13.828C22.048 12.556 21.184 11.572 20.056 10.876C18.928 10.156 17.56 9.796 15.952 9.796H11.632V26.644H15.952C17.584 26.644 18.964 26.284 20.092 25.564C21.22 24.82 22.072 23.812 22.648 22.54C23.248 21.244 23.548 19.792 23.548 18.184ZM32.4335 31V5.44H43.7375C44.9135 5.44 45.9935 5.68 46.9775 6.16C47.9855 6.64 48.8495 7.288 49.5695 8.104C50.3135 8.92 50.8775 9.832 51.2615 10.84C51.6695 11.848 51.8735 12.88 51.8735 13.936C51.8735 15.016 51.6815 16.06 51.2975 17.068C50.9375 18.052 50.4095 18.916 49.7135 19.66C49.0175 20.404 48.2015 20.98 47.2655 21.388L53.0975 31H47.6255L42.3695 22.432H37.4015V31H32.4335ZM37.4015 18.076H43.6295C44.2535 18.076 44.8055 17.896 45.2855 17.536C45.7655 17.152 46.1495 16.648 46.4375 16.024C46.7255 15.4 46.8695 14.704 46.8695 13.936C46.8695 13.12 46.7015 12.412 46.3655 11.812C46.0295 11.188 45.5975 10.696 45.0695 10.336C44.5655 9.976 44.0135 9.796 43.4135 9.796H37.4015V18.076ZM56.3749 31V5.476H61.3429V17.608L72.0709 5.44H77.5429L67.7509 16.78L78.1549 31H72.5389L64.5829 19.984L61.3429 23.368V31H56.3749Z" fill="#F5F5F5"/>
<path d="M99.429 9.004H90.933V31H86.865V9.004H78.333V5.44H99.429V9.004ZM107.088 31.36C105.624 31.36 104.292 31.108 103.092 30.604C101.916 30.076 100.896 29.368 100.032 28.48C99.1677 27.568 98.4957 26.536 98.0157 25.384C97.5597 24.208 97.3317 22.96 97.3317 21.64C97.3317 19.864 97.7397 18.244 98.5557 16.78C99.3717 15.292 100.512 14.104 101.976 13.216C103.44 12.304 105.156 11.848 107.124 11.848C109.092 11.848 110.784 12.304 112.2 13.216C113.64 14.104 114.756 15.28 115.548 16.744C116.34 18.208 116.736 19.78 116.736 21.46C116.736 21.748 116.724 22.024 116.7 22.288C116.676 22.528 116.652 22.732 116.628 22.9H101.544C101.616 24.004 101.916 24.976 102.444 25.816C102.996 26.632 103.692 27.28 104.532 27.76C105.372 28.216 106.272 28.444 107.232 28.444C108.288 28.444 109.284 28.18 110.22 27.652C111.18 27.124 111.828 26.428 112.164 25.564L115.548 26.536C115.14 27.448 114.516 28.276 113.676 29.02C112.86 29.74 111.888 30.316 110.76 30.748C109.632 31.156 108.408 31.36 107.088 31.36ZM101.436 20.272H112.812C112.74 19.192 112.428 18.244 111.876 17.428C111.348 16.588 110.664 15.94 109.824 15.484C109.008 15.004 108.096 14.764 107.088 14.764C106.104 14.764 105.192 15.004 104.352 15.484C103.536 15.94 102.864 16.588 102.336 17.428C101.808 18.244 101.508 19.192 101.436 20.272ZM128.498 31.36C127.034 31.36 125.702 31.108 124.502 30.604C123.326 30.076 122.306 29.356 121.442 28.444C120.578 27.532 119.906 26.488 119.426 25.312C118.97 24.136 118.742 22.888 118.742 21.568C118.742 19.792 119.138 18.172 119.93 16.708C120.746 15.244 121.874 14.068 123.314 13.18C124.778 12.292 126.506 11.848 128.498 11.848C130.418 11.848 132.086 12.28 133.502 13.144C134.942 13.984 135.998 15.112 136.67 16.528L132.818 17.752C132.386 16.96 131.774 16.348 130.982 15.916C130.214 15.46 129.362 15.232 128.426 15.232C127.37 15.232 126.41 15.508 125.546 16.06C124.706 16.588 124.034 17.332 123.53 18.292C123.05 19.228 122.81 20.32 122.81 21.568C122.81 22.768 123.062 23.86 123.566 24.844C124.07 25.804 124.742 26.572 125.582 27.148C126.446 27.7 127.406 27.976 128.462 27.976C129.11 27.976 129.734 27.868 130.334 27.652C130.958 27.412 131.498 27.1 131.954 26.716C132.41 26.308 132.734 25.864 132.926 25.384L136.814 26.536C136.406 27.472 135.794 28.3 134.978 29.02C134.186 29.74 133.238 30.316 132.134 30.748C131.054 31.156 129.842 31.36 128.498 31.36ZM153.179 31L147.131 22.324L144.035 25.276V31H140.075V4.72H144.035V21.28L152.747 12.208H156.995L149.687 20.092L157.391 31H153.179Z" fill="black"/>
</svg>
