<svg width="100" height="28" viewBox="0 0 100 28" fill="none" xmlns="http://www.w3.org/2000/svg">
<g clip-path="url(#clip0_166_3364)">
<path d="M25.5427 18.7717L24.2526 9.83501C23.9211 7.53668 21.9208 5.83334 19.5653 5.83334H8.84151C6.48605 5.83334 4.48569 7.53668 4.15427 9.83501L2.8641 18.7717C2.6037 20.5683 4.01223 22.1667 5.84688 22.1667C6.65176 22.1667 7.40929 21.8517 7.97744 21.2917L10.6525 18.6667H17.7544L20.4176 21.2917C20.9857 21.8517 21.7551 22.1667 22.5481 22.1667C24.3946 22.1667 25.8031 20.5683 25.5427 18.7717ZM13.0198 12.8333H10.6525V15.1667H9.46884V12.8333H7.10155V11.6667H9.46884V9.33334H10.6525V11.6667H13.0198V12.8333ZM17.7544 11.6667C17.1033 11.6667 16.5707 11.1417 16.5707 10.5C16.5707 9.85834 17.1033 9.33334 17.7544 9.33334C18.4054 9.33334 18.938 9.85834 18.938 10.5C18.938 11.1417 18.4054 11.6667 17.7544 11.6667ZM20.1216 15.1667C19.4706 15.1667 18.938 14.6417 18.938 14C18.938 13.3583 19.4706 12.8333 20.1216 12.8333C20.7726 12.8333 21.3053 13.3583 21.3053 14C21.3053 14.6417 20.7726 15.1667 20.1216 15.1667Z" fill="#2A7AE4"/>
</g>
<path d="M72.7728 17.92C71.968 18.7134 71.0305 19.11 69.9605 19.11C69.2976 19.11 68.6727 18.9794 68.0856 18.718C67.508 18.4567 67.0014 18.0974 66.5658 17.64C66.1397 17.1827 65.7988 16.646 65.5431 16.03C65.2969 15.4047 65.1738 14.7327 65.1738 14.014C65.1738 13.3327 65.2969 12.6934 65.5431 12.096C65.7988 11.4894 66.1444 10.962 66.58 10.514C67.025 10.0567 67.5459 9.69737 68.1424 9.43604C68.739 9.16537 69.3876 9.03004 70.0883 9.03004C71.0352 9.03004 71.8449 9.22604 72.5172 9.61804C73.1989 10.01 73.7103 10.5374 74.0512 11.2L72.5882 12.264C72.3325 11.7694 71.9727 11.3914 71.5087 11.13C71.0542 10.8687 70.557 10.738 70.0173 10.738C69.5912 10.738 69.1982 10.8267 68.8384 11.004C68.488 11.1814 68.185 11.424 67.9294 11.732C67.6832 12.04 67.489 12.3947 67.347 12.796C67.2144 13.1974 67.1481 13.622 67.1481 14.07C67.1481 14.5367 67.2239 14.9754 67.3754 15.386C67.5269 15.7874 67.7352 16.1374 68.0004 16.436C68.2655 16.7347 68.578 16.9727 68.9378 17.15C69.3071 17.318 69.7048 17.402 70.1309 17.402C71.1063 17.402 71.9869 16.9494 72.7728 16.044V15.344H70.7417V13.93H74.3921V19.04H72.7728V17.92Z" fill="#464646"/>
<path d="M79.3294 19.18C78.7329 19.18 78.1931 19.082 77.7102 18.886C77.2273 18.6807 76.8154 18.4054 76.4745 18.06C76.1336 17.7147 75.8684 17.3134 75.6791 16.856C75.4991 16.3987 75.4092 15.918 75.4092 15.414C75.4092 14.8914 75.4991 14.4014 75.6791 13.944C75.859 13.4774 76.1194 13.0714 76.4603 12.726C76.8011 12.3714 77.2131 12.0914 77.696 11.886C78.1884 11.6807 78.7376 11.578 79.3436 11.578C79.9496 11.578 80.4894 11.6807 80.9628 11.886C81.4458 12.0914 81.8529 12.3667 82.1844 12.712C82.5253 13.0574 82.7809 13.4587 82.9514 13.916C83.1313 14.3734 83.2212 14.8494 83.2212 15.344C83.2212 15.4654 83.2165 15.582 83.207 15.694C83.207 15.806 83.1976 15.8994 83.1786 15.974H77.4261C77.4545 16.2634 77.5255 16.52 77.6392 16.744C77.7528 16.968 77.8996 17.1594 78.0795 17.318C78.2594 17.4767 78.463 17.598 78.6902 17.682C78.9175 17.766 79.1542 17.808 79.4004 17.808C79.7792 17.808 80.1343 17.7194 80.4657 17.542C80.8066 17.3554 81.0386 17.1127 81.1617 16.814L82.7951 17.262C82.5205 17.822 82.0802 18.284 81.4742 18.648C80.8776 19.0027 80.1627 19.18 79.3294 19.18ZM81.2611 14.756C81.2138 14.2054 81.0055 13.7667 80.6362 13.44C80.2763 13.104 79.836 12.936 79.3152 12.936C79.0595 12.936 78.8181 12.9827 78.5908 13.076C78.373 13.16 78.1789 13.2814 78.0085 13.44C77.838 13.5987 77.696 13.79 77.5824 14.014C77.4782 14.238 77.4166 14.4854 77.3977 14.756H81.2611Z" fill="#464646"/>
<path d="M87.8322 19.18C87.2357 19.18 86.6959 19.082 86.213 18.886C85.7301 18.6807 85.3182 18.4054 84.9773 18.06C84.6364 17.7147 84.3713 17.3134 84.1819 16.856C84.002 16.3987 83.912 15.918 83.912 15.414C83.912 14.8914 84.002 14.4014 84.1819 13.944C84.3618 13.4774 84.6222 13.0714 84.9631 12.726C85.304 12.3714 85.7159 12.0914 86.1988 11.886C86.6912 11.6807 87.2404 11.578 87.8464 11.578C88.4525 11.578 88.9922 11.6807 89.4657 11.886C89.9486 12.0914 90.3558 12.3667 90.6872 12.712C91.0281 13.0574 91.2838 13.4587 91.4542 13.916C91.6341 14.3734 91.7241 14.8494 91.7241 15.344C91.7241 15.4654 91.7193 15.582 91.7099 15.694C91.7099 15.806 91.7004 15.8994 91.6815 15.974H85.9289C85.9574 16.2634 86.0284 16.52 86.142 16.744C86.2556 16.968 86.4024 17.1594 86.5823 17.318C86.7622 17.4767 86.9658 17.598 87.1931 17.682C87.4203 17.766 87.6571 17.808 87.9033 17.808C88.282 17.808 88.6371 17.7194 88.9685 17.542C89.3094 17.3554 89.5414 17.1127 89.6645 16.814L91.298 17.262C91.0234 17.822 90.583 18.284 89.977 18.648C89.3805 19.0027 88.6655 19.18 87.8322 19.18ZM89.764 14.756C89.7166 14.2054 89.5083 13.7667 89.139 13.44C88.7792 13.104 88.3388 12.936 87.818 12.936C87.5624 12.936 87.3209 12.9827 87.0936 13.076C86.8759 13.16 86.6817 13.2814 86.5113 13.44C86.3409 13.5987 86.1988 13.79 86.0852 14.014C85.981 14.238 85.9195 14.4854 85.9005 14.756H89.764Z" fill="#464646"/>
<path d="M97.9685 19.04L95.8095 15.862L94.7869 16.856V19.04H92.8836V8.82004H94.7869V15.022L97.7697 11.718H99.8008L97.0311 14.826L99.9996 19.04H97.9685Z" fill="#464646"/>
<path d="M32.2564 9.10004H33.9893L37.8243 19.04H35.8074L34.8699 16.562H31.3474L30.4242 19.04H28.4072L32.2564 9.10004ZM34.5148 15.204L33.1229 11.298L31.6741 15.204H34.5148Z" fill="#2A7AE4"/>
<path d="M38.7316 8.82004H40.6349V16.688C40.6349 16.9587 40.7012 17.1687 40.8337 17.318C40.9663 17.4674 41.1557 17.542 41.4019 17.542C41.5155 17.542 41.6386 17.5234 41.7712 17.486C41.9132 17.4487 42.0458 17.402 42.1689 17.346L42.4245 18.774C42.1689 18.8954 41.8706 18.9887 41.5297 19.054C41.1888 19.1194 40.8811 19.152 40.6065 19.152C40.0099 19.152 39.5459 18.998 39.2145 18.69C38.8925 18.3727 38.7316 17.9247 38.7316 17.346V8.82004Z" fill="#2A7AE4"/>
<path d="M45.5264 19.18C44.7594 19.18 44.177 18.9374 43.7793 18.452C43.3816 17.9667 43.1828 17.248 43.1828 16.296V11.704H45.0861V15.89C45.0861 17.0194 45.498 17.584 46.3218 17.584C46.6911 17.584 47.0462 17.4767 47.3871 17.262C47.7375 17.038 48.0215 16.702 48.2393 16.254V11.704H50.1426V16.884C50.1426 17.08 50.1758 17.22 50.242 17.304C50.3178 17.388 50.4362 17.4347 50.5971 17.444V19.04C50.4078 19.0774 50.2468 19.1007 50.1142 19.11C49.9911 19.1194 49.8775 19.124 49.7733 19.124C49.4324 19.124 49.1531 19.0494 48.9353 18.9C48.727 18.7414 48.6039 18.5267 48.566 18.256L48.5234 17.668C48.192 18.172 47.7659 18.55 47.2451 18.802C46.7243 19.054 46.1514 19.18 45.5264 19.18Z" fill="#2A7AE4"/>
<path d="M56.4656 13.328C55.888 13.3374 55.3719 13.4494 54.9174 13.664C54.4629 13.8694 54.1362 14.182 53.9373 14.602V19.04H52.034V11.704H53.7811V13.272C53.9137 13.02 54.0699 12.796 54.2498 12.6C54.4297 12.3947 54.6239 12.2174 54.8322 12.068C55.0405 11.9187 55.2488 11.8067 55.4571 11.732C55.6749 11.648 55.8833 11.606 56.0821 11.606C56.1863 11.606 56.262 11.606 56.3094 11.606C56.3662 11.606 56.4183 11.6107 56.4656 11.62V13.328Z" fill="#2A7AE4"/>
<path d="M59.4609 19.18C59.1011 19.18 58.765 19.124 58.4525 19.012C58.14 18.8907 57.8701 18.7274 57.6429 18.522C57.4156 18.3074 57.2357 18.06 57.1031 17.78C56.98 17.5 56.9185 17.192 56.9185 16.856C56.9185 16.5107 56.9942 16.1934 57.1457 15.904C57.3067 15.6054 57.5245 15.3534 57.7991 15.148C58.0832 14.9427 58.4193 14.784 58.8076 14.672C59.1958 14.5507 59.6219 14.49 60.0859 14.49C60.4173 14.49 60.7393 14.518 61.0518 14.574C61.3737 14.63 61.6578 14.7094 61.904 14.812V14.392C61.904 13.9067 61.7619 13.5334 61.4779 13.272C61.2033 13.0107 60.7914 12.88 60.2421 12.88C59.8444 12.88 59.4562 12.95 59.0774 13.09C58.6987 13.23 58.3104 13.4354 57.9127 13.706L57.3304 12.516C58.2868 11.8907 59.3189 11.578 60.4268 11.578C61.4968 11.578 62.3254 11.8394 62.9124 12.362C63.509 12.8754 63.8073 13.622 63.8073 14.602V16.884C63.8073 17.08 63.8404 17.22 63.9067 17.304C63.9825 17.388 64.1008 17.4347 64.2618 17.444V19.04C63.9399 19.1054 63.6605 19.138 63.4238 19.138C63.064 19.138 62.7846 19.0587 62.5858 18.9C62.3964 18.7414 62.278 18.5314 62.2307 18.27L62.1881 17.864C61.8566 18.2934 61.4542 18.62 60.9807 18.844C60.5073 19.068 60.0007 19.18 59.4609 19.18ZM60.0007 17.808C60.3226 17.808 60.6256 17.752 60.9097 17.64C61.2033 17.528 61.4305 17.3787 61.5915 17.192C61.7998 17.0334 61.904 16.856 61.904 16.66V15.82C61.6767 15.736 61.4305 15.6707 61.1654 15.624C60.9002 15.568 60.6446 15.54 60.3984 15.54C59.906 15.54 59.5035 15.652 59.1911 15.876C58.8786 16.0907 58.7223 16.366 58.7223 16.702C58.7223 17.0194 58.8454 17.2854 59.0916 17.5C59.3378 17.7054 59.6409 17.808 60.0007 17.808Z" fill="#2A7AE4"/>
<defs>
<clipPath id="clip0_166_3364">
<rect width="28.4075" height="28" fill="white"/>
</clipPath>
</defs>
</svg>
